<?xml version="1.0" encoding="utf-8"?>
<!-- Generator: Adobe Illustrator 16.0.4, SVG Export Plug-In . SVG Version: 6.00 Build 0)  -->
<!DOCTYPE svg PUBLIC "-//W3C//DTD SVG 1.1//EN" "http://www.w3.org/Graphics/SVG/1.1/DTD/svg11.dtd">
<svg version="1.1" id="Layer_1" xmlns="http://www.w3.org/2000/svg" xmlns:xlink="http://www.w3.org/1999/xlink" x="0px" y="0px"
	 width="262px" height="276.5px" viewBox="0 0 262 276.5" enable-background="new 0 0 262 276.5" xml:space="preserve">
<path fill="none" stroke="#E96145" stroke-width="12" stroke-miterlimit="10" d="M175.163,107.471h-5.315
	c-15.956,0-17.355-23.321-0.662-23.321h5.978h59.033c10.789,0,19.616-8.827,19.616-19.615V8.577H73.517
	c-23.788,0-65.508,24.809-65.508,61.891v49v39.231v110.01h118.384h97.464c16.782,0,29.956-13.612,29.956-27.371v-27.955
	c0-10.789-8.827-16.823-19.616-16.823h-57.708h-7.287c-15.31,0-15.31-22.854-0.662-22.854h7.949h56.383
	c10.789,0,19.616-8.827,19.616-19.616v-27.003c0-10.788-8.827-19.615-19.616-19.615H175.163z"/>
</svg>
